<svg xmlns="http://www.w3.org/2000/svg" viewBox="0 0 1340 640" font-family="Helvetica,Arial,sans-serif">
<defs>
<marker id="a-2563eb" markerWidth="10" markerHeight="7" refX="9" refY="3.5" orient="auto"><path d="M0,0 L10,3.5 L0,7 Z" fill="#2563eb"/></marker>
<marker id="a-9ca3af" markerWidth="10" markerHeight="7" refX="9" refY="3.5" orient="auto"><path d="M0,0 L10,3.5 L0,7 Z" fill="#9ca3af"/></marker>
<marker id="a-059669" markerWidth="10" markerHeight="7" refX="9" refY="3.5" orient="auto"><path d="M0,0 L10,3.5 L0,7 Z" fill="#059669"/></marker>
<marker id="a-7c3aed" markerWidth="10" markerHeight="7" refX="9" refY="3.5" orient="auto"><path d="M0,0 L10,3.5 L0,7 Z" fill="#7c3aed"/></marker>
<marker id="a-d97706" markerWidth="10" markerHeight="7" refX="9" refY="3.5" orient="auto"><path d="M0,0 L10,3.5 L0,7 Z" fill="#d97706"/></marker>
</defs>
<rect x="0" y="0" width="1340" height="640" fill="#ffffff"/>
<text x="670.0" y="36" text-anchor="middle" font-size="20" font-weight="700" fill="#0f172a">Pipeline định tuyến truy vấn — Baseline (Sudarshan) vs Của ta</text>
<rect x="40" y="285" width="120" height="70" rx="10" fill="#fef9c3" stroke="#ca8a04" stroke-width="1.5"/>
<text x="100.0" y="316.0" text-anchor="middle" font-size="14" font-weight="700" fill="#1e293b">Câu hỏi</text>
<text x="100.0" y="335.0" text-anchor="middle" font-size="11" fill="#64748b">ngôn ngữ tự nhiên</text>
<rect x="190" y="80" width="1120" height="120" rx="14" fill="#fafafa" stroke="#9ca3af" stroke-dasharray="6,4"/>
<text x="205" y="100" font-size="13" font-weight="700" fill="#9ca3af">BASELINE — Sudarshan (SQL-only)</text>
<rect x="205" y="125" width="150" height="60" rx="10" fill="#f3f4f6" stroke="#9ca3af" stroke-width="1.5"/>
<text x="280.0" y="151.0" text-anchor="middle" font-size="14" font-weight="700" fill="#1e293b">Embed</text>
<text x="280.0" y="170.0" text-anchor="middle" font-size="11" fill="#64748b">raw DDL</text>
<rect x="375" y="125" width="150" height="60" rx="10" fill="#f3f4f6" stroke="#9ca3af" stroke-width="1.5"/>
<text x="450.0" y="151.0" text-anchor="middle" font-size="14" font-weight="700" fill="#1e293b">Dense top-5</text>
<text x="450.0" y="170.0" text-anchor="middle" font-size="11" fill="#64748b">5 ứng viên</text>
<rect x="560" y="125" width="170" height="60" rx="10" fill="#f3f4f6" stroke="#9ca3af" stroke-width="1.5"/>
<text x="645.0" y="151.0" text-anchor="middle" font-size="14" font-weight="700" fill="#1e293b">Decompose rerank</text>
<text x="645.0" y="170.0" text-anchor="middle" font-size="11" fill="#64748b">Coverage×Connectivity</text>
<rect x="770" y="125" width="150" height="60" rx="10" fill="#f3f4f6" stroke="#9ca3af" stroke-width="1.5"/>
<text x="845.0" y="151.0" text-anchor="middle" font-size="14" font-weight="700" fill="#1e293b">argmax</text>
<text x="845.0" y="170.0" text-anchor="middle" font-size="11" fill="#64748b">chọn 1</text>
<rect x="945" y="125" width="150" height="60" rx="10" fill="#f3f4f6" stroke="#9ca3af" stroke-width="1.5"/>
<text x="1020.0" y="151.0" text-anchor="middle" font-size="14" font-weight="700" fill="#1e293b">DB</text>
<text x="1020.0" y="170.0" text-anchor="middle" font-size="11" fill="#64748b">kết quả</text>
<line x1="160" y1="310" x2="205" y2="155" stroke="#9ca3af" stroke-width="2" marker-end="url(#a-9ca3af)"/>
<line x1="355" y1="155" x2="375" y2="155" stroke="#9ca3af" stroke-width="2" marker-end="url(#a-9ca3af)"/>
<line x1="525" y1="155" x2="560" y2="155" stroke="#9ca3af" stroke-width="2" marker-end="url(#a-9ca3af)"/>
<line x1="730" y1="155" x2="770" y2="155" stroke="#9ca3af" stroke-width="2" marker-end="url(#a-9ca3af)"/>
<line x1="920" y1="155" x2="945" y2="155" stroke="#9ca3af" stroke-width="2" marker-end="url(#a-9ca3af)"/>
<rect x="190" y="410" width="1120" height="140" rx="14" fill="#eff6ff" stroke="#2563eb" stroke-dasharray="6,4"/>
<text x="205" y="430" font-size="13" font-weight="700" fill="#2563eb">CỦA TA — đa-engine (PG / Mongo / Neo4j)</text>
<rect x="205" y="458" width="140" height="62" rx="10" fill="#dcfce7" stroke="#059669" stroke-width="1.5"/>
<text x="275.0" y="485.0" text-anchor="middle" font-size="13" font-weight="700" fill="#1e293b">Embed</text>
<text x="275.0" y="504.0" text-anchor="middle" font-size="11" fill="#64748b">semantic card</text>
<rect x="213" y="446" width="46" height="20" rx="10" fill="#059669"/>
<text x="236" y="460" text-anchor="middle" font-size="11" font-weight="700" fill="#ffffff">RQ1</text>
<rect x="370" y="458" width="135" height="62" rx="10" fill="#f8fafc" stroke="#cbd5e1" stroke-width="1.5"/>
<text x="437.5" y="485.0" text-anchor="middle" font-size="13" font-weight="700" fill="#1e293b">Dense top-10</text>
<text x="437.5" y="504.0" text-anchor="middle" font-size="11" fill="#64748b">10 ứng viên</text>
<rect x="530" y="458" width="150" height="62" rx="10" fill="#dcfce7" stroke="#059669" stroke-width="1.5"/>
<text x="605.0" y="485.0" text-anchor="middle" font-size="13" font-weight="700" fill="#1e293b">Agent lọc domain</text>
<text x="605.0" y="504.0" text-anchor="middle" font-size="11" fill="#64748b">lọc domain → ~3</text>
<rect x="538" y="446" width="46" height="20" rx="10" fill="#059669"/>
<text x="561" y="460" text-anchor="middle" font-size="11" font-weight="700" fill="#ffffff">RQ2</text>
<rect x="705" y="458" width="160" height="62" rx="10" fill="#f8fafc" stroke="#cbd5e1" stroke-width="1.5"/>
<text x="785.0" y="485.0" text-anchor="middle" font-size="13" font-weight="700" fill="#1e293b">Rerank → argmax</text>
<text x="785.0" y="504.0" text-anchor="middle" font-size="11" fill="#64748b">Coverage×Connectivity</text>
<rect x="890" y="458" width="155" height="62" rx="10" fill="#dcfce7" stroke="#059669" stroke-width="1.5"/>
<text x="967.5" y="485.0" text-anchor="middle" font-size="13" font-weight="700" fill="#1e293b">Agent tie-break</text>
<text x="967.5" y="504.0" text-anchor="middle" font-size="11" fill="#64748b">khi điểm hòa</text>
<rect x="898" y="446" width="46" height="20" rx="10" fill="#059669"/>
<text x="921" y="460" text-anchor="middle" font-size="11" font-weight="700" fill="#ffffff">RQ3</text>
<rect x="1070" y="458" width="135" height="62" rx="10" fill="#f8fafc" stroke="#cbd5e1" stroke-width="1.5"/>
<text x="1137.5" y="485.0" text-anchor="middle" font-size="13" font-weight="700" fill="#1e293b">DB</text>
<text x="1137.5" y="504.0" text-anchor="middle" font-size="11" fill="#64748b">kết quả</text>
<line x1="160" y1="320" x2="205" y2="489" stroke="#2563eb" stroke-width="2" marker-end="url(#a-2563eb)"/>
<line x1="345" y1="489" x2="370" y2="489" stroke="#2563eb" stroke-width="2" marker-end="url(#a-2563eb)"/>
<line x1="505" y1="489" x2="530" y2="489" stroke="#2563eb" stroke-width="2" marker-end="url(#a-2563eb)"/>
<line x1="680" y1="489" x2="705" y2="489" stroke="#2563eb" stroke-width="2" marker-end="url(#a-2563eb)"/>
<line x1="865" y1="489" x2="890" y2="489" stroke="#2563eb" stroke-width="2" marker-end="url(#a-2563eb)"/>
<line x1="1045" y1="489" x2="1070" y2="489" stroke="#2563eb" stroke-width="2" marker-end="url(#a-2563eb)"/>
<text x="40" y="600" text-anchor="start" font-size="12" font-weight="400" fill="#334155"></text>
<rect x="40" y="588" width="16" height="12" rx="3" fill="#dcfce7" stroke="#059669"/>
<text x="62" y="598" text-anchor="start" font-size="12" font-weight="400" fill="#334155">Đóng góp của thesis (RQ1/RQ2/RQ3)</text>
<line x1="420" y1="594" x2="452" y2="594" stroke="#2563eb" stroke-width="2" marker-end="url(#a-2563eb)"/>
<text x="460" y="598" text-anchor="start" font-size="12" font-weight="400" fill="#334155">Luồng của ta</text>
<line x1="610" y1="594" x2="642" y2="594" stroke="#9ca3af" stroke-width="2" marker-end="url(#a-9ca3af)"/>
<text x="650" y="598" text-anchor="start" font-size="12" font-weight="400" fill="#334155">Luồng baseline</text>
</svg>