<svg xmlns="http://www.w3.org/2000/svg" viewBox="0 0 1120 560" font-family="Helvetica,Arial,sans-serif">
<defs>
<marker id="a-2563eb" markerWidth="10" markerHeight="7" refX="9" refY="3.5" orient="auto"><path d="M0,0 L10,3.5 L0,7 Z" fill="#2563eb"/></marker>
<marker id="a-9ca3af" markerWidth="10" markerHeight="7" refX="9" refY="3.5" orient="auto"><path d="M0,0 L10,3.5 L0,7 Z" fill="#9ca3af"/></marker>
<marker id="a-059669" markerWidth="10" markerHeight="7" refX="9" refY="3.5" orient="auto"><path d="M0,0 L10,3.5 L0,7 Z" fill="#059669"/></marker>
<marker id="a-7c3aed" markerWidth="10" markerHeight="7" refX="9" refY="3.5" orient="auto"><path d="M0,0 L10,3.5 L0,7 Z" fill="#7c3aed"/></marker>
<marker id="a-d97706" markerWidth="10" markerHeight="7" refX="9" refY="3.5" orient="auto"><path d="M0,0 L10,3.5 L0,7 Z" fill="#d97706"/></marker>
</defs>
<rect x="0" y="0" width="1120" height="560" fill="#ffffff"/>
<text x="560.0" y="36" text-anchor="middle" font-size="20" font-weight="700" fill="#0f172a">Bước 1 — Biểu diễn DB: raw DDL vs semantic card (RQ1)</text>
<rect x="40" y="250" width="140" height="70" rx="10" fill="#fef9c3" stroke="#ca8a04" stroke-width="1.5"/>
<text x="110.0" y="281.0" text-anchor="middle" font-size="14" font-weight="700" fill="#1e293b">Schema DB</text>
<text x="110.0" y="300.0" text-anchor="middle" font-size="11" fill="#64748b">DDL gốc</text>
<rect x="230" y="90" width="610" height="120" rx="14" fill="#fafafa" stroke="#9ca3af" stroke-dasharray="6,4"/>
<text x="245" y="110" font-size="13" font-weight="700" fill="#9ca3af">BASELINE</text>
<rect x="250" y="120" width="150" height="60" rx="10" fill="#f3f4f6" stroke="#9ca3af" stroke-width="1.5"/>
<text x="325.0" y="146.0" text-anchor="middle" font-size="14" font-weight="700" fill="#1e293b">raw DDL</text>
<text x="325.0" y="165.0" text-anchor="middle" font-size="11" fill="#64748b">văn bản thô</text>
<rect x="470" y="120" width="150" height="60" rx="10" fill="#f3f4f6" stroke="#9ca3af" stroke-width="1.5"/>
<text x="545.0" y="155.0" text-anchor="middle" font-size="14" font-weight="700" fill="#1e293b">Embed</text>
<rect x="690" y="120" width="130" height="60" rx="10" fill="#f3f4f6" stroke="#9ca3af" stroke-width="1.5"/>
<text x="755.0" y="155.0" text-anchor="middle" font-size="14" font-weight="700" fill="#1e293b">Vector DB</text>
<line x1="180" y1="270" x2="250" y2="150" stroke="#9ca3af" stroke-width="2" marker-end="url(#a-9ca3af)"/>
<line x1="400" y1="150" x2="470" y2="150" stroke="#9ca3af" stroke-width="2" marker-end="url(#a-9ca3af)"/>
<line x1="620" y1="150" x2="690" y2="150" stroke="#9ca3af" stroke-width="2" marker-end="url(#a-9ca3af)"/>
<rect x="230" y="360" width="610" height="140" rx="14" fill="#eff6ff" stroke="#2563eb" stroke-dasharray="6,4"/>
<text x="245" y="380" font-size="13" font-weight="700" fill="#2563eb">CỦA TA</text>
<rect x="250" y="395" width="160" height="70" rx="10" fill="#dcfce7" stroke="#059669" stroke-width="1.5"/>
<text x="330.0" y="426.0" text-anchor="middle" font-size="14" font-weight="700" fill="#1e293b">LLM build card</text>
<text x="330.0" y="445.0" text-anchor="middle" font-size="11" fill="#64748b">đọc schema + support</text>
<rect x="440" y="395" width="180" height="70" rx="10" fill="#dcfce7" stroke="#059669" stroke-width="1.5"/>
<text x="530.0" y="426.0" text-anchor="middle" font-size="14" font-weight="700" fill="#1e293b">Semantic card</text>
<text x="530.0" y="445.0" text-anchor="middle" font-size="11" fill="#64748b">domain_desc + glossary</text>
<rect x="650" y="395" width="150" height="70" rx="10" fill="#f8fafc" stroke="#cbd5e1" stroke-width="1.5"/>
<text x="725.0" y="435.0" text-anchor="middle" font-size="14" font-weight="700" fill="#1e293b">Embed → Vector</text>
<line x1="180" y1="300" x2="250" y2="430" stroke="#2563eb" stroke-width="2" marker-end="url(#a-2563eb)"/>
<line x1="410" y1="430" x2="440" y2="430" stroke="#2563eb" stroke-width="2" marker-end="url(#a-2563eb)"/>
<line x1="620" y1="430" x2="650" y2="430" stroke="#2563eb" stroke-width="2" marker-end="url(#a-2563eb)"/>
<rect x="900" y="250" width="180" height="70" rx="10" fill="#ede9fe" stroke="#7c3aed" stroke-width="1.5"/>
<text x="990.0" y="281.0" text-anchor="middle" font-size="14" font-weight="700" fill="#1e293b">Cosine vs query</text>
<text x="990.0" y="300.0" text-anchor="middle" font-size="11" fill="#64748b">→ recall@k</text>
<line x1="820" y1="150" x2="900" y2="270" stroke="#9ca3af" stroke-width="2" marker-end="url(#a-9ca3af)"/>
<line x1="800" y1="430" x2="900" y2="300" stroke="#2563eb" stroke-width="2" marker-end="url(#a-2563eb)"/>
<rect x="900" y="360" width="180" height="150" rx="10" fill="#fff7ed" stroke="#fb923c" stroke-width="1.5"/>
<text x="990.0" y="440.0" text-anchor="middle" font-size="14" font-weight="700" fill="#1e293b"></text>
<text x="990" y="388" text-anchor="middle" font-size="12" font-weight="700" fill="#9a3412">Đối chứng: che tên schema</text>
<text x="915" y="415" text-anchor="start" font-size="11" font-weight="400" fill="#9a3412">(làm mờ hết tên bảng/cột)</text>
<text x="915" y="445" text-anchor="start" font-size="12" font-weight="400" fill="#b91c1c">raw  R@5: .87 → .04</text>
<text x="915" y="470" text-anchor="start" font-size="12" font-weight="400" fill="#15803d">card R@5: .89 → .86</text>
<text x="915" y="495" text-anchor="start" font-size="11" font-weight="400" fill="#9a3412">→ card không nhờ trùng tên</text>
</svg>