<svg xmlns="http://www.w3.org/2000/svg" viewBox="0 0 1120 560" font-family="Helvetica,Arial,sans-serif">
<defs>
<marker id="a-2563eb" markerWidth="10" markerHeight="7" refX="9" refY="3.5" orient="auto"><path d="M0,0 L10,3.5 L0,7 Z" fill="#2563eb"/></marker>
<marker id="a-9ca3af" markerWidth="10" markerHeight="7" refX="9" refY="3.5" orient="auto"><path d="M0,0 L10,3.5 L0,7 Z" fill="#9ca3af"/></marker>
<marker id="a-059669" markerWidth="10" markerHeight="7" refX="9" refY="3.5" orient="auto"><path d="M0,0 L10,3.5 L0,7 Z" fill="#059669"/></marker>
<marker id="a-7c3aed" markerWidth="10" markerHeight="7" refX="9" refY="3.5" orient="auto"><path d="M0,0 L10,3.5 L0,7 Z" fill="#7c3aed"/></marker>
</defs>
<rect x="0" y="0" width="1120" height="560" fill="#ffffff"/>
<text x="560.0" y="36" text-anchor="middle" font-size="20" font-weight="700" fill="#0f172a">Bước 2 — Lấy ứng viên: dense top-5 vs card top-10 → lọc domain (RQ2)</text>
<rect x="40" y="250" width="130" height="64" rx="10" fill="#fef9c3" stroke="#ca8a04" stroke-width="1.5"/>
<text x="105.0" y="278.0" text-anchor="middle" font-size="14" font-weight="700" fill="#1e293b">Query</text>
<text x="105.0" y="297.0" text-anchor="middle" font-size="11" fill="#64748b">embed</text>
<path d="M210,245 a60.0,10 0 0 1 120,0 v75 a60.0,10 0 0 1 -120,0 Z" fill="#ede9fe" stroke="#7c3aed" stroke-width="1.5"/>
<ellipse cx="270.0" cy="245" rx="60.0" ry="10" fill="#ede9fe" stroke="#7c3aed" stroke-width="1.5"/>
<text x="270.0" y="290.5" text-anchor="middle" font-size="13" font-weight="700" fill="#1e293b">Card index</text>
<rect x="380" y="90" width="260" height="140" rx="14" fill="#fafafa" stroke="#9ca3af" stroke-dasharray="6,4"/>
<text x="395" y="110" font-size="13" font-weight="700" fill="#9ca3af">BASELINE</text>
<rect x="410" y="150" width="200" height="60" rx="10" fill="#f3f4f6" stroke="#9ca3af" stroke-width="1.5"/>
<text x="510.0" y="176.0" text-anchor="middle" font-size="14" font-weight="700" fill="#1e293b">Dense top-5</text>
<text x="510.0" y="195.0" text-anchor="middle" font-size="11" fill="#64748b">5 ứng viên cố định</text>
<line x1="330" y1="270" x2="410" y2="180" stroke="#9ca3af" stroke-width="2" marker-end="url(#a-9ca3af)"/>
<rect x="380" y="300" width="680" height="200" rx="14" fill="#eff6ff" stroke="#2563eb" stroke-dasharray="6,4"/>
<text x="395" y="320" font-size="13" font-weight="700" fill="#2563eb">CỦA TA</text>
<rect x="400" y="360" width="150" height="70" rx="10" fill="#f8fafc" stroke="#cbd5e1" stroke-width="1.5"/>
<text x="475.0" y="391.0" text-anchor="middle" font-size="14" font-weight="700" fill="#1e293b">Dense top-10</text>
<text x="475.0" y="410.0" text-anchor="middle" font-size="11" fill="#64748b">lấy rộng, ít sót</text>
<rect x="590" y="355" width="170" height="80" rx="10" fill="#dcfce7" stroke="#059669" stroke-width="1.5"/>
<text x="675.0" y="391.0" text-anchor="middle" font-size="14" font-weight="700" fill="#1e293b">Agent lọc domain</text>
<text x="675.0" y="410.0" text-anchor="middle" font-size="11" fill="#64748b">đọc mô tả domain</text>
<rect x="800" y="360" width="150" height="70" rx="10" fill="#dcfce7" stroke="#059669" stroke-width="1.5"/>
<text x="875.0" y="391.0" text-anchor="middle" font-size="14" font-weight="700" fill="#1e293b">~3 ứng viên</text>
<text x="875.0" y="410.0" text-anchor="middle" font-size="11" fill="#64748b">cùng domain</text>
<line x1="330" y1="300" x2="400" y2="395" stroke="#2563eb" stroke-width="2" marker-end="url(#a-2563eb)"/>
<line x1="550" y1="395" x2="590" y2="395" stroke="#2563eb" stroke-width="2" marker-end="url(#a-2563eb)"/>
<line x1="760" y1="395" x2="800" y2="395" stroke="#2563eb" stroke-width="2" marker-end="url(#a-2563eb)"/>
<text x="595" y="460" text-anchor="start" font-size="11" font-weight="400" fill="#15803d">giữ mọi DB cùng chủ đề · bỏ DB lạc đề</text>
<text x="595" y="478" text-anchor="start" font-size="11" font-weight="400" fill="#15803d">chỉ chọn subset — không xếp hạng</text>
<rect x="980" y="150" width="110" height="60" rx="10" fill="#fff7ed" stroke="#fb923c" stroke-width="1.5"/>
<text x="1035.0" y="185.0" text-anchor="middle" font-size="14" font-weight="700" fill="#1e293b"></text>
<text x="1035" y="175" text-anchor="middle" font-size="12" font-weight="700" fill="#9a3412">pool ~3 &lt; 5</text>
<text x="1035" y="196" text-anchor="middle" font-size="12" font-weight="700" fill="#15803d">recall ↑</text>
<line x1="950" y1="395" x2="980" y2="210" stroke="#7c3aed" stroke-width="1.5" stroke-dasharray="4,2" marker-end="url(#a-7c3aed)"/>
</svg>