<svg xmlns="http://www.w3.org/2000/svg" viewBox="0 0 1120 420" font-family="Helvetica,Arial,sans-serif">
<defs>
<marker id="a-2563eb" markerWidth="10" markerHeight="7" refX="9" refY="3.5" orient="auto"><path d="M0,0 L10,3.5 L0,7 Z" fill="#2563eb"/></marker>
<marker id="a-9ca3af" markerWidth="10" markerHeight="7" refX="9" refY="3.5" orient="auto"><path d="M0,0 L10,3.5 L0,7 Z" fill="#9ca3af"/></marker>
</defs>
<rect x="0" y="0" width="1120" height="420" fill="#ffffff"/>
<text x="560.0" y="36" text-anchor="middle" font-size="20" font-weight="700" fill="#0f172a">Bước 3 — Quyết định cuối: argmax + agent tie-break (RQ3)</text>
<rect x="40" y="180" width="140" height="70" rx="10" fill="#fef9c3" stroke="#ca8a04" stroke-width="1.5"/>
<text x="110.0" y="211.0" text-anchor="middle" font-size="14" font-weight="700" fill="#1e293b">~3 ứng viên</text>
<text x="110.0" y="230.0" text-anchor="middle" font-size="11" fill="#64748b">(đã lọc domain)</text>
<rect x="230" y="70" width="700" height="120" rx="14" fill="#fafafa" stroke="#9ca3af" stroke-dasharray="6,4"/>
<text x="245" y="90" font-size="13" font-weight="700" fill="#9ca3af">V1 — argmax thuần (kiểu Sudarshan)</text>
<rect x="250" y="100" width="120" height="60" rx="10" fill="#f3f4f6" stroke="#9ca3af" stroke-width="1.5"/>
<text x="310.0" y="126.0" text-anchor="middle" font-size="14" font-weight="700" fill="#1e293b">Parse query</text>
<text x="310.0" y="145.0" text-anchor="middle" font-size="11" fill="#64748b">phrase set</text>
<rect x="420" y="100" width="120" height="60" rx="10" fill="#f3f4f6" stroke="#9ca3af" stroke-width="1.5"/>
<text x="480.0" y="126.0" text-anchor="middle" font-size="14" font-weight="700" fill="#1e293b">Map → entity</text>
<text x="480.0" y="145.0" text-anchor="middle" font-size="11" fill="#64748b">per candidate</text>
<rect x="590" y="100" width="160" height="60" rx="10" fill="#f3f4f6" stroke="#9ca3af" stroke-width="1.5"/>
<text x="670.0" y="126.0" text-anchor="middle" font-size="14" font-weight="700" fill="#1e293b">Coverage×Connectivity</text>
<text x="670.0" y="145.0" text-anchor="middle" font-size="11" fill="#64748b">chấm điểm</text>
<rect x="790" y="100" width="120" height="60" rx="10" fill="#f3f4f6" stroke="#9ca3af" stroke-width="1.5"/>
<text x="850.0" y="135.0" text-anchor="middle" font-size="14" font-weight="700" fill="#1e293b">argmax</text>
<line x1="370" y1="130" x2="420" y2="130" stroke="#9ca3af" stroke-width="2" marker-end="url(#a-9ca3af)"/>
<line x1="540" y1="130" x2="590" y2="130" stroke="#9ca3af" stroke-width="2" marker-end="url(#a-9ca3af)"/>
<line x1="750" y1="130" x2="790" y2="130" stroke="#9ca3af" stroke-width="2" marker-end="url(#a-9ca3af)"/>
<text x="590" y="180" text-anchor="start" font-size="11" font-weight="400" fill="#b45309">⚠ 25–47% hòa điểm</text>
<rect x="230" y="220" width="700" height="100" rx="14" fill="#eff6ff" stroke="#2563eb" stroke-dasharray="6,4"/>
<text x="245" y="240" font-size="13" font-weight="700" fill="#2563eb">V2 — argmax + agent tie-break  ◄ LUỒNG CỦA TA</text>
<rect x="250" y="248" width="360" height="55" rx="10" fill="#dcfce7" stroke="#059669" stroke-width="1.5"/>
<text x="430.0" y="280.5" text-anchor="middle" font-size="14" font-weight="700" fill="#1e293b">điểm V1; nếu HÒA → agent đọc card chọn 1</text>
<rect x="790" y="248" width="120" height="55" rx="10" fill="#dcfce7" stroke="#059669" stroke-width="1.5"/>
<text x="850.0" y="280.5" text-anchor="middle" font-size="14" font-weight="700" fill="#1e293b">chọn 1</text>
<line x1="610" y1="275" x2="790" y2="275" stroke="#2563eb" stroke-width="2" marker-end="url(#a-2563eb)"/>
<line x1="180" y1="200" x2="230" y2="130" stroke="#9ca3af" stroke-width="2" marker-end="url(#a-9ca3af)"/>
<line x1="180" y1="215" x2="250" y2="275" stroke="#2563eb" stroke-width="2" marker-end="url(#a-2563eb)"/>
<rect x="960" y="205" width="130" height="110" rx="10" fill="#f0fdf4" stroke="#16a34a" stroke-width="1.5"/>
<text x="1025" y="232" text-anchor="middle" font-size="12" font-weight="700" fill="#166534">R@1 (MultiDB)</text>
<text x="980" y="265" text-anchor="start" font-size="13" font-weight="400" fill="#6b7280">V1: .739</text>
<text x="980" y="295" text-anchor="start" font-size="14" font-weight="700" fill="#15803d">V2: .807</text>
<text x="560" y="370" text-anchor="middle" font-size="12" font-weight="400" fill="#475569">Bất biến: agent luôn CHỌN trong phương án cho sẵn — không tự khai số confidence đưa vào công thức.</text>
</svg>